<?xml version="1.0" standalone="no"?>
<!DOCTYPE svg PUBLIC "-//W3C//DTD SVG 20010904//EN"
 "http://www.w3.org/TR/2001/REC-SVG-20010904/DTD/svg10.dtd">
<svg version="1.0" xmlns="http://www.w3.org/2000/svg"
 width="405.000000pt" height="238.000000pt" viewBox="0 0 405.000000 238.000000"
 preserveAspectRatio="xMidYMid meet">

<g transform="translate(0.000000,238.000000) scale(0.100000,-0.100000)"
fill="#000000" stroke="none">
<path d="M720 1695 c0 -11 12 -15 45 -15 l45 0 0 -340 0 -340 -45 0 c-33 0
-45 -4 -45 -15 0 -13 47 -15 365 -15 l365 0 0 140 c0 118 -2 140 -15 140 -8 0
-15 -9 -15 -20 0 -36 -42 -110 -81 -143 -49 -42 -120 -78 -170 -84 l-39 -6 0
342 0 341 45 0 c33 0 45 4 45 15 0 13 -34 15 -250 15 -216 0 -250 -2 -250 -15z"/>
<path d="M1510 1695 c0 -11 11 -15 40 -15 29 0 42 -5 50 -19 17 -32 13 -507
-4 -566 -17 -53 -50 -95 -78 -95 -10 0 -18 -7 -18 -15 0 -13 22 -15 140 -15
107 0 140 3 140 13 0 7 -12 14 -27 15 -39 3 -73 29 -91 70 -14 30 -17 81 -20
282 -2 135 -2 243 1 240 2 -3 59 -143 127 -312 l122 -308 36 0 37 0 85 223
c46 122 101 265 122 317 l37 95 0 -302 1 -303 -45 0 c-33 0 -45 -4 -45 -15 0
-13 34 -15 250 -15 216 0 250 2 250 15 0 11 -12 15 -45 15 l-45 0 0 340 0 340
45 0 c33 0 45 4 45 15 0 13 -29 15 -197 15 l-198 0 -70 -181 c-46 -117 -73
-176 -78 -167 -5 7 -39 87 -77 178 l-68 165 -211 3 c-183 2 -211 0 -211 -13z"/>
<path d="M2840 1695 c0 -11 12 -15 50 -15 l50 0 3 -222 c3 -349 3 -381 -12
-416 -18 -44 -62 -66 -114 -58 -79 13 -106 46 -36 46 31 0 47 6 70 29 65 65
21 181 -68 181 -57 0 -106 -38 -117 -91 -14 -71 50 -163 131 -187 51 -15 185
-16 255 -1 62 13 135 48 161 77 41 45 46 85 47 370 l0 272 45 0 c33 0 45 4 45
15 0 13 -35 15 -255 15 -220 0 -255 -2 -255 -15z"/>
</g>
</svg>
