<?xml version="1.0" standalone="no"?>
<!DOCTYPE svg PUBLIC "-//W3C//DTD SVG 20010904//EN"
 "http://www.w3.org/TR/2001/REC-SVG-20010904/DTD/svg10.dtd">
<svg version="1.0" xmlns="http://www.w3.org/2000/svg"
 width="863.000000pt" height="410.000000pt" viewBox="0 0 863.000000 410.000000"
 preserveAspectRatio="xMidYMid meet">

<g transform="translate(0.000000,410.000000) scale(0.100000,-0.100000)"
fill="#000000" stroke="none">
<path d="M4255 3296 c-67 -30 -96 -98 -66 -155 31 -57 153 -79 224 -41 l39 21
-8 -23 c-20 -65 -66 -94 -163 -104 -45 -5 -61 -11 -61 -22 0 -21 114 -10 174
17 82 36 129 164 89 241 -34 67 -151 100 -228 66z"/>
<path d="M880 3265 c0 -11 12 -15 50 -15 l50 0 0 -420 0 -420 -50 0 c-38 0
-50 -4 -50 -15 0 -13 56 -15 445 -15 l445 0 0 170 c0 143 -2 170 -15 170 -8 0
-17 -12 -20 -27 -29 -136 -161 -251 -317 -276 l-38 -6 0 420 0 419 55 0 c42 0
55 3 55 15 0 13 -41 15 -305 15 -264 0 -305 -2 -305 -15z"/>
<path d="M1850 3265 c0 -11 11 -15 44 -15 78 0 78 0 74 -373 l-3 -322 -27 -58
c-23 -48 -34 -61 -68 -75 -22 -9 -40 -23 -40 -29 0 -10 42 -13 175 -13 141 0
175 3 175 14 0 8 -16 16 -42 19 -114 15 -146 147 -130 534 l7 182 150 -375
149 -375 44 3 45 3 148 385 148 385 1 -372 0 -373 -55 0 c-42 0 -55 -3 -55
-15 0 -13 41 -15 305 -15 264 0 305 2 305 15 0 12 -13 15 -55 15 l-55 0 0 420
0 420 55 0 c43 0 55 3 55 15 0 13 -31 15 -242 13 l-242 -3 -84 -218 c-47 -119
-86 -216 -88 -214 -2 1 -43 99 -92 217 l-89 215 -256 3 c-224 2 -257 0 -257
-13z"/>
<path d="M3470 3265 c0 -12 14 -15 65 -15 l65 0 0 -372 c0 -410 -1 -417 -62
-462 -38 -27 -117 -25 -166 6 l-37 23 55 5 c82 8 107 29 134 114 9 28 -11 90
-38 115 -34 32 -102 39 -151 15 -56 -26 -77 -66 -72 -137 10 -162 188 -240
439 -193 105 20 163 43 210 85 71 62 72 66 76 454 l4 347 49 0 c37 0 49 4 49
15 0 13 -41 15 -310 15 -269 0 -310 -2 -310 -15z"/>
<path d="M4650 2951 c-105 -34 -160 -102 -160 -197 0 -96 73 -165 245 -229 77
-29 105 -49 105 -75 0 -31 -29 -44 -87 -42 -109 5 -207 73 -234 161 -7 23 -18
41 -26 41 -10 0 -13 -27 -13 -126 l0 -126 43 35 44 36 50 -25 c59 -28 175 -47
236 -38 143 20 217 86 217 192 0 103 -29 134 -215 232 -123 66 -148 86 -134
111 8 15 21 19 62 19 96 0 194 -65 222 -146 25 -73 35 -53 35 70 0 64 -2 116
-4 116 -2 0 -24 -11 -49 -25 l-45 -25 -48 21 c-53 24 -197 35 -244 20z"/>
<path d="M2853 1713 c-79 -2 -143 -8 -143 -13 0 -5 17 -10 38 -12 l37 -3 3
-129 c1 -72 0 -136 -2 -143 -4 -9 -15 -9 -51 4 -66 22 -170 15 -213 -15 -106
-76 -123 -268 -34 -374 55 -65 169 -88 247 -48 38 19 42 19 57 -10 5 -9 318 1
318 11 0 5 -16 9 -35 9 l-35 0 0 365 0 365 -22 -2 c-13 -1 -87 -4 -165 -5z
m-75 -335 c8 -8 12 -62 12 -175 l0 -163 -32 -20 c-23 -14 -36 -16 -50 -9 -16
9 -18 25 -18 182 0 185 3 197 50 197 14 0 31 -5 38 -12z"/>
<path d="M870 1695 c0 -11 12 -15 45 -15 l45 0 0 -288 c0 -261 2 -291 19 -322
40 -77 149 -120 302 -120 143 0 232 41 270 124 16 36 19 67 19 243 0 111 5
225 11 252 12 57 55 111 88 111 12 0 21 6 21 15 0 13 -22 15 -140 15 -118 0
-140 -2 -140 -15 0 -9 10 -15 26 -15 35 0 80 -47 94 -99 7 -27 10 -120 8 -264
-3 -211 -4 -224 -25 -253 -42 -59 -158 -93 -208 -60 l-25 16 0 330 0 330 35 0
c24 0 35 5 35 15 0 13 -33 15 -240 15 -207 0 -240 -2 -240 -15z"/>
<path d="M4081 1604 c-42 -79 -172 -174 -238 -174 -13 0 -23 -4 -23 -10 0 -5
14 -10 30 -10 l30 0 0 -185 0 -185 29 -32 c24 -27 36 -32 89 -36 82 -6 125 3
162 35 32 26 70 91 70 118 0 28 -17 16 -35 -26 -18 -39 -46 -64 -59 -52 -3 3
-6 87 -6 185 l0 178 35 0 c19 0 35 5 35 10 0 6 -16 10 -35 10 l-35 0 0 110 c0
125 -10 138 -49 64z"/>
<path d="M5018 1436 c-87 -32 -128 -82 -128 -156 0 -81 53 -131 201 -191 78
-33 93 -46 83 -74 -15 -37 -117 -30 -185 14 -40 25 -68 64 -83 114 -3 9 -10
17 -16 17 -6 0 -10 -40 -10 -106 l0 -105 36 29 36 30 47 -21 c65 -29 196 -35
256 -13 84 33 130 115 105 190 -16 48 -62 86 -179 146 -54 28 -102 58 -106 68
-10 27 23 44 70 36 84 -14 156 -71 170 -134 13 -60 25 -28 25 71 l0 100 -41
-24 -41 -25 -45 20 c-59 26 -147 32 -195 14z"/>
<path d="M1843 1433 c-84 -2 -143 -8 -143 -13 0 -6 16 -10 35 -10 l35 0 0
-335 0 -335 -35 0 c-19 0 -35 -4 -35 -10 0 -6 73 -10 200 -10 127 0 200 4 200
10 0 6 -18 10 -40 10 l-40 0 0 140 0 141 43 -25 c110 -65 228 -29 290 88 28
53 31 184 5 231 -21 39 -65 83 -101 102 -42 21 -127 18 -183 -6 -57 -26 -54
-26 -54 4 0 18 -5 24 -17 23 -10 -1 -82 -4 -160 -5z m265 -55 c13 -13 18 -311
6 -342 -7 -19 -52 -21 -76 -2 -16 12 -18 33 -18 173 0 156 1 160 23 171 30 14
51 14 65 0z"/>
<path d="M3340 1430 c-97 -12 -140 -46 -140 -110 0 -68 95 -107 151 -61 33 26
33 95 1 121 -31 26 -28 30 22 30 72 0 90 -22 94 -117 l4 -80 -105 5 c-94 4
-110 2 -151 -18 -53 -25 -76 -61 -76 -119 0 -47 39 -93 96 -111 47 -16 149 -9
196 14 35 17 37 17 77 -3 80 -42 203 -18 250 48 23 33 9 45 -15 14 -25 -33
-34 6 -34 153 0 130 -2 142 -22 163 -31 35 -98 60 -170 66 -34 3 -76 7 -93 9
-16 1 -55 -1 -85 -4z m104 -240 c25 -9 26 -13 26 -89 l0 -79 -31 -12 c-51 -22
-64 -6 -67 84 -4 101 10 120 72 96z"/>
<path d="M4445 1412 c-74 -24 -149 -102 -163 -169 -23 -106 22 -196 122 -248
54 -27 69 -30 155 -30 75 0 104 4 130 19 47 25 132 106 125 118 -4 5 -25 -8
-48 -31 -45 -44 -116 -80 -158 -81 -52 0 -68 29 -68 125 l0 85 145 0 145 0 -6
28 c-21 86 -77 154 -157 187 -47 20 -158 18 -222 -3z m173 -8 c20 -14 22 -24
22 -100 l0 -84 -50 0 -50 0 0 83 c0 85 4 100 30 110 23 8 24 8 48 -9z"/>
</g>
</svg>
